{"title":"The.Innocence.Of.Youth.7.XXX.2014.DVDRiP-ViK","uid":10869785,"size":1347779469,"categoryP":"porn","categoryS":"movies","magnet":"?xt=urn:btih:6c1d62c8c60be3ec4e37e5ddcd4b860a0f5814b7&amp;dn=The.Innocence.Of.Youth.7.XXX.2014.DVDRiP-ViK&amp;tr=udp%3A%2F%2Ftracker.openbittorrent.com%3A80&amp;tr=udp%3A%2F%2Fopen.demonii.com%3A1337&amp;tr=udp%3A%2F%2Ftracker.coppersurfer.tk%3A6969&amp;tr=udp%3A%2F%2Fexodus.desync.com%3A6969","seeders":0,"leechers":1,"uploader":"iH2OSO4","files":-1,"time":1408963905,"description":"Innocence Only Runs So Deep Before The Sexual Tension Becomes Too Much! Watch Alina Li, Kimber Day, Natasha White, and Giselle Mari as they succumb to their utmost sexual desires. Innocence Of Youth # 7 DVD video Underneath the sweet glow of these darling young ladies lies a throbbing lust just waiting to be fucked!\n\nSOURCE :     &lt;a href=&quot; http://nuscotower.com/i/drtyjfyuk.html&quot; rel=&quot;nofollow&quot; target=&quot;_NEW&quot;&gt; http://nuscotower.com/i/drtyjfyuk.html&lt;/a&gt;\n\nGeneral\nThe.Innocence.Of.Youth.7.XXX.2014.DVDRiP-ViK.mp4\nFormat                           : MPEG-4\nFormat profile                   : Base Media\nCodec ID                         : isom\nFile size                        : 1.25 GiB\nDuration                         : 1h 48mn\nOverall bit rate                 : 1 658 Kbps\nEncoded date                     : UTC 2014-08-25 08:01:08\nTagged date                      : UTC 2014-08-25 08:01:08\n\nVideo\nID                               : 1\nFormat                           : MPEG-4 Visual\nFormat profile                   : Simple@L1\nFormat settings, BVOP            : No\nFormat settings, QPel            : No\nFormat settings, GMC             : No warppoints\nFormat settings, Matrix          : Default (H.263)\nCodec ID                         : 20\nDuration                         : 1h 48mn\nBit rate mode                    : Variable\nBit rate                         : 1 530 Kbps\nMaximum bit rate                 : 4 081 Kbps\nWidth                            : 856 pixels\nHeight                           : 480 pixels\nDisplay aspect ratio             : 16:9\nFrame rate mode                  : Constant\nFrame rate                       : 23.976 fps\nColor space                      : YUV\nChroma subsampling               : 4:2:0\nBit depth                        : 8 bits\nScan type                        : Progressive\nCompression mode                 : Lossy\nBits/(Pixel*Frame)               : 0.155\nStream size                      : 1.16 GiB (92%)\nWriting library                  : Lavc53.8.0\nEncoded date                     : UTC 2014-08-25 08:01:08\nTagged date                      : UTC 2014-08-25 08:03:51\n\nAudio\nID                               : 2\nFormat                           : AAC\nFormat/Info                      : Advanced Audio Codec\nFormat profile                   : LC\nCodec ID                         : 40\nDuration                         : 1h 48mn\nBit rate mode                    : Variable\nBit rate                         : 126 Kbps\nMaximum bit rate                 : 224 Kbps\nChannel(s)                       : 2 channels\nChannel positions                : Front: L R\nSampling rate                    : 44.1 KHz\nCompression mode                 : Lossy\nStream size                      : 97.3 MiB (8%)\nEncoded date                     : UTC 2014-08-25 08:02:32\nTagged date                      : UTC 2014-08-25 08:03:51\n","torrent":{"xt":"urn:btih:6c1d62c8c60be3ec4e37e5ddcd4b860a0f5814b7","amp;dn":"The.Innocence.Of.Youth.7.XXX.2014.DVDRiP-ViK","amp;tr":["udp%3A%2F%2Ftracker.openbittorrent.com%3A80","udp%3A%2F%2Fopen.demonii.com%3A1337","udp%3A%2F%2Ftracker.coppersurfer.tk%3A6969","udp%3A%2F%2Fexodus.desync.com%3A6969"],"infoHash":"6c1d62c8c60be3ec4e37e5ddcd4b860a0f5814b7","infoHashBuffer":{"type":"Buffer","data":[108,29,98,200,198,11,227,236,78,55,229,221,205,75,134,10,15,88,20,183]},"announce":[],"urlList":[]}}